<?xml version="1.0" encoding="UTF-8" standalone="no"?>
<!-- Created with Inkscape (http://www.inkscape.org/) -->

<svg
   xmlns:dc="http://purl.org/dc/elements/1.1/"
   xmlns:cc="http://creativecommons.org/ns#"
   xmlns:rdf="http://www.w3.org/1999/02/22-rdf-syntax-ns#"
   xmlns:svg="http://www.w3.org/2000/svg"
   xmlns="http://www.w3.org/2000/svg"
   xmlns:sodipodi="http://sodipodi.sourceforge.net/DTD/sodipodi-0.dtd"
   xmlns:inkscape="http://www.inkscape.org/namespaces/inkscape"
   width="1383.7499pt"
   height="313.73438pt"
   viewBox="0 0 488.15621 110.67851"
   version="1.1"
   id="svg8"
   inkscape:version="0.92.3 (2405546, 2018-03-11)"
   sodipodi:docname="yagita.svg">
  <defs
     id="defs2" />
  <sodipodi:namedview
     id="base"
     pagecolor="#ffffff"
     bordercolor="#666666"
     borderopacity="1.0"
     inkscape:pageopacity="0.0"
     inkscape:pageshadow="2"
     inkscape:zoom="0.35"
     inkscape:cx="429.56677"
     inkscape:cy="12.722987"
     inkscape:document-units="mm"
     inkscape:current-layer="layer1"
     showgrid="false"
     fit-margin-top="72"
     fit-margin-left="144"
     fit-margin-right="144"
     fit-margin-bottom="72"
     units="pt"
     inkscape:window-width="1920"
     inkscape:window-height="1018"
     inkscape:window-x="0"
     inkscape:window-y="34"
     inkscape:window-maximized="1" />
  <metadata
     id="metadata5">
    <rdf:RDF>
      <cc:Work
         rdf:about="">
        <dc:format>image/svg+xml</dc:format>
        <dc:type
           rdf:resource="http://purl.org/dc/dcmitype/StillImage" />
        <dc:title></dc:title>
      </cc:Work>
    </rdf:RDF>
  </metadata>
  <g
     inkscape:label="Layer 1"
     inkscape:groupmode="layer"
     id="layer1"
     transform="translate(-37.156245,-41.521154)">
    <g
       aria-label="YAGITA Yugo"
       style="font-style:normal;font-weight:normal;font-size:10.58333302px;line-height:1.25;font-family:sans-serif;letter-spacing:0px;word-spacing:0px;fill:#bef3d3;fill-opacity:1;stroke:none;stroke-width:0.26458332"
       id="text817">
      <path
         d="m 90.858394,118.44049 3.398242,-3.24941 q 2.951758,3.49746 7.044534,3.49746 6.27558,0 9.30175,-12.1543 l 2.0836,-8.35918 q -6.64766,10.71562 -10.88926,10.71562 -3.373437,0 -3.943945,-7.26777 L 96.389839,83.143419 q -0.595313,-7.441406 -3.249414,-7.441406 -1.909961,0 -5.18418,2.951758 l 0.396875,-2.033984 q 4.01836,-3.96875 6.870899,-3.96875 3.026171,0 4.539257,3.001367 1.537894,2.976562 2.083594,9.996289 l 1.01699,13.617773 q 0.37207,4.886524 1.95957,4.886524 1.24024,0 3.81992,-2.85254 2.6045,-2.852539 5.01055,-6.846093 l 5.25859,-20.885547 5.75469,-0.471289 -2.28203,7.813476 -4.83691,19.471683 q -5.06016,20.29023 -18.628323,20.29023 -4.241601,0 -8.061523,-2.23242 z"
         style="font-style:normal;font-variant:normal;font-weight:normal;font-stretch:normal;font-size:50.79999924px;font-family:'Lucida Calligraphy';-inkscape-font-specification:'Lucida Calligraphy';fill:#bef3d3;fill-opacity:1;stroke-width:0.26458332"
         id="path838" />
      <path
         d="m 124.71679,108.19615 3.34863,-3.37343 q 2.35645,3.62148 6.17637,3.62148 3.64629,0 6.84609,-3.02617 3.22461,-3.05098 7.68946,-10.790041 l 10.69082,-18.454687 q -2.70371,-0.322461 -4.63848,-0.322461 -5.18418,0 -8.01191,2.604492 -2.80293,2.579688 -2.80293,7.391797 l -4.86172,2.406055 q 0.47129,-4.663281 2.60449,-7.714258 2.35645,-3.398242 5.55625,-4.836914 3.19981,-1.438672 9.27695,-1.860351 1.21543,-0.07441 3.6711,-0.272852 l 5.06015,-0.917773 0.32246,8.25996 1.43868,17.140039 q 0.49609,5.977934 1.38906,7.887894 0.91777,1.88515 3.27422,1.88515 0.42168,0 2.90215,-0.14883 l -0.32247,1.63711 -11.38535,1.88516 -1.01699,-12.22871 h -13.51855 q -3.91914,6.79648 -7.4166,9.525 -3.49747,2.70371 -8.33438,2.70371 -4.58887,0 -7.9375,-3.00137 z m 24.75508,-11.062887 h 12.27832 l -1.5875,-18.62832 z"
         style="font-style:normal;font-variant:normal;font-weight:normal;font-stretch:normal;font-size:50.79999924px;font-family:'Lucida Calligraphy';-inkscape-font-specification:'Lucida Calligraphy';fill:#bef3d3;fill-opacity:1;stroke-width:0.26458332"
         id="path840" />
      <path
         d="m 180.75058,118.24205 4.21679,-2.35644 q 2.97657,2.72851 7.63985,2.72851 3.27422,0 5.01055,-1.93476 1.76113,-1.90996 2.85253,-6.67246 0.0744,-0.32247 0.22325,-0.94258 -4.41524,1.24023 -9.22735,1.24023 -6.3748,0 -10.0707,-3.67109 -3.67109,-3.6711 -3.67109,-9.996291 0,-9.89707 6.8957,-16.941601 6.8957,-7.069336 16.61914,-7.069336 5.53144,0 10.79004,1.413867 l -1.98438,6.548438 h -1.51308 q 0.0992,-0.868165 0.0992,-1.513086 0,-2.207618 -2.38125,-3.547071 -2.38125,-1.364257 -6.27559,-1.364257 -6.64766,0 -11.70781,6.697265 -5.03535,6.697266 -5.03535,15.50293 0,5.382612 3.22461,8.508012 3.22461,3.10058 8.78086,3.10058 3.42304,0 5.8291,-0.76894 l 2.45566,-12.377543 h -4.39043 q -4.36562,0 -7.9375,2.80293 l 0.32246,-1.711524 q 4.46485,-4.316015 8.92969,-4.316015 h 8.88008 l -1.93477,7.664648 -1.16582,5.853904 q -1.6123,8.03672 -5.70508,11.78223 -4.06796,3.77031 -11.18691,3.77031 -5.35781,0 -8.58242,-2.43086 z"
         style="font-style:normal;font-variant:normal;font-weight:normal;font-stretch:normal;font-size:50.79999924px;font-family:'Lucida Calligraphy';-inkscape-font-specification:'Lucida Calligraphy';fill:#bef3d3;fill-opacity:1;stroke-width:0.26458332"
         id="path842" />
      <path
         d="m 210.86346,110.27975 3.7207,-3.6711 h 1.66192 q 2.82773,0 4.16718,-1.83554 1.36426,-1.86036 2.43086,-7.292582 l 4.04317,-20.240624 h -6.72207 l 3.59668,-3.671094 h 16.14785 l -3.77031,3.671094 h -4.04317 l -3.49746,17.561718 q -1.6123,8.061528 -8.33437,12.179098 l 9.64902,0.24805 -3.57188,3.67109 z"
         style="font-style:normal;font-variant:normal;font-weight:normal;font-stretch:normal;font-size:50.79999924px;font-family:'Lucida Calligraphy';-inkscape-font-specification:'Lucida Calligraphy';fill:#bef3d3;fill-opacity:1;stroke-width:0.26458332"
         id="path844" />
      <path
         d="m 243.08476,110.27975 3.67109,-3.6711 0.37207,0.0992 q 0.29766,0.0496 1.43867,0.0496 2.75332,0 4.06797,-1.95957 1.33946,-1.95957 2.48047,-7.664647 l 3.94395,-19.893359 h -6.27559 q -9.5498,0 -9.5498,7.540625 0,0.892968 0.22324,2.207617 l -5.15938,2.406054 q 1.0418,-7.292578 6.3252,-11.558984 5.2834,-4.266406 13.29531,-4.266406 h 10.51719 q 7.11894,0 9.42578,-0.942578 2.30684,-0.942578 3.12539,-4.191992 l 3.7207,-1.513086 q -1.73633,4.613672 -6.69726,7.466211 -4.96094,2.852539 -11.26133,2.852539 h -2.48047 l -3.44785,17.288867 q -0.91777,4.663281 -2.72852,7.366989 -1.78593,2.67891 -5.63066,5.13457 l 9.57461,0.19844 -3.44785,3.67109 z"
         style="font-style:normal;font-variant:normal;font-weight:normal;font-stretch:normal;font-size:50.79999924px;font-family:'Lucida Calligraphy';-inkscape-font-specification:'Lucida Calligraphy';fill:#bef3d3;fill-opacity:1;stroke-width:0.26458332"
         id="path846" />
      <path
         d="m 272.05663,108.19615 3.34863,-3.37343 q 2.35644,3.62148 6.17637,3.62148 3.64629,0 6.84609,-3.02617 3.22461,-3.05098 7.68945,-10.790041 l 10.69082,-18.454687 q -2.70371,-0.322461 -4.63847,-0.322461 -5.18418,0 -8.01192,2.604492 -2.80293,2.579688 -2.80293,7.391797 l -4.86172,2.406055 q 0.47129,-4.663281 2.6045,-7.714258 2.35644,-3.398242 5.55625,-4.836914 3.1998,-1.438672 9.27695,-1.860351 1.21543,-0.07441 3.67109,-0.272852 l 5.06016,-0.917773 0.32246,8.25996 1.43867,17.140039 q 0.4961,5.977934 1.38906,7.887894 0.91778,1.88515 3.27422,1.88515 0.42168,0 2.90215,-0.14883 l -0.32246,1.63711 -11.38535,1.88516 -1.01699,-12.22871 H 295.7451 q -3.91914,6.79648 -7.4166,9.525 -3.49746,2.70371 -8.33437,2.70371 -4.58887,0 -7.9375,-3.00137 z M 296.8117,97.133263 h 12.27832 l -1.5875,-18.62832 z"
         style="font-style:normal;font-variant:normal;font-weight:normal;font-stretch:normal;font-size:50.79999924px;font-family:'Lucida Calligraphy';-inkscape-font-specification:'Lucida Calligraphy';fill:#bef3d3;fill-opacity:1;stroke-width:0.26458332"
         id="path848" />
      <path
         d="m 346.14823,118.44049 3.39825,-3.24941 q 2.95175,3.49746 7.04453,3.49746 6.27558,0 9.30176,-12.1543 l 2.08359,-8.35918 q -6.64766,10.71562 -10.88926,10.71562 -3.37344,0 -3.94394,-7.26777 l -1.46348,-18.479491 q -0.59531,-7.441406 -3.24941,-7.441406 -1.90997,0 -5.18418,2.951758 l 0.39687,-2.033984 q 4.01836,-3.96875 6.8709,-3.96875 3.02617,0 4.53926,3.001367 1.53789,2.976562 2.08359,9.996289 l 1.01699,13.617773 q 0.37207,4.886524 1.95957,4.886524 1.24024,0 3.81993,-2.85254 2.60449,-2.852539 5.01054,-6.846093 l 5.2586,-20.885547 5.75468,-0.471289 -2.28203,7.813476 -4.83691,19.471683 q -5.06016,20.29023 -18.62832,20.29023 -4.2416,0 -8.06153,-2.23242 z"
         style="font-style:normal;font-variant:normal;font-weight:normal;font-stretch:normal;font-size:50.79999924px;font-family:'Lucida Calligraphy';-inkscape-font-specification:'Lucida Calligraphy';fill:#bef3d3;fill-opacity:1;stroke-width:0.26458332"
         id="path850" />
      <path
         d="m 403.99276,96.810802 h -0.42168 q -7.04453,14.089058 -13.7418,14.089058 -3.96875,0 -3.96875,-4.68808 0,-1.33945 0.39687,-3.34863 l 2.40606,-12.179106 q 0.57051,-2.852539 0.57051,-3.720703 0,-1.53789 -1.46348,-1.53789 -2.43086,0 -7.3918,5.432226 l 0.44649,-2.282031 q 5.40742,-5.829102 9.74824,-5.829102 3.59668,0 3.59668,3.720703 0,1.240235 -0.59531,4.216797 l -2.43086,12.203906 q -0.32246,1.63711 -0.32246,2.33164 0,2.00918 1.46347,2.00918 1.86036,0 5.63067,-4.48965 3.79512,-4.514451 6.97011,-10.492381 l 1.78594,-8.904882 5.2586,-0.297656 -1.83555,7.639843 -2.43086,12.253516 q -0.57051,2.85254 -0.57051,3.7207 0,1.5627 1.46348,1.5627 2.45566,0 7.3918,-5.45703 l -0.44649,2.30683 q -5.43223,5.8291 -9.74824,5.8291 -3.59668,0 -3.59668,-3.7455 0,-1.26504 0.59531,-4.2168 z"
         style="font-style:normal;font-variant:normal;font-weight:normal;font-stretch:normal;font-size:50.79999924px;font-family:'Lucida Calligraphy';-inkscape-font-specification:'Lucida Calligraphy';fill:#bef3d3;fill-opacity:1;stroke-width:0.26458332"
         id="path852" />
      <path
         d="m 420.88474,109.88287 q -2.97657,-1.48828 -2.97657,-5.97793 0,-7.342185 5.95313,-14.188279 5.77949,-6.67246 14.36191,-6.67246 1.63711,0 6.92051,0.297656 l -1.76113,7.342187 -1.16582,5.754688 q -0.89297,4.539258 -1.21543,6.697268 -1.36426,8.80566 -2.75332,12.2039 -1.36426,3.42305 -4.86172,6.69727 -5.13457,4.7625 -11.83184,4.7625 -4.36562,0 -7.09414,-1.71152 -2.72851,-1.68672 -2.72851,-4.41524 0,-5.45703 9.15293,-10.79004 z M 439.2154,86.963341 q -2.97656,-1.463476 -5.92832,-1.463476 -3.29902,0 -5.58105,2.951757 -1.81075,2.331641 -3.29903,6.895703 -1.46347,4.539258 -1.46347,7.763865 0,3.49746 2.20761,3.49746 4.88653,0 12.97285,-14.113864 z m -1.95957,9.847461 h -0.39687 q -2.6293,5.829098 -6.3004,9.376168 -3.67109,3.54707 -7.71425,4.16719 -6.49883,4.48965 -6.49883,8.33438 0,2.48046 2.40605,4.21679 2.43086,1.76114 5.87871,1.76114 4.44004,0 6.99493,-3.47266 2.57968,-3.44785 3.67109,-10.91406 z"
         style="font-style:normal;font-variant:normal;font-weight:normal;font-stretch:normal;font-size:50.79999924px;font-family:'Lucida Calligraphy';-inkscape-font-specification:'Lucida Calligraphy';fill:#bef3d3;fill-opacity:1;stroke-width:0.26458332"
         id="path854" />
      <path
         d="m 457.00036,110.89986 q -3.24941,0 -5.43223,-2.53007 -2.158,-2.55489 -2.158,-6.35 0,-7.143754 5.40742,-13.196097 5.40742,-6.077149 11.78223,-6.077149 3.44785,0 5.68027,2.480469 2.23242,2.480469 2.23242,6.325195 0,7.416602 -5.40742,13.394532 -5.40742,5.95312 -12.10469,5.95312 z m 2.82774,-2.158 q 3.67109,0 6.44921,-4.71289 2.80293,-4.737699 2.80293,-10.988481 0,-8.210351 -5.01054,-8.210351 -3.54707,0 -6.39961,4.886523 -2.82774,4.861719 -2.82774,10.963669 0,8.06153 4.98575,8.06153 z"
         style="font-style:normal;font-variant:normal;font-weight:normal;font-stretch:normal;font-size:50.79999924px;font-family:'Lucida Calligraphy';-inkscape-font-specification:'Lucida Calligraphy';fill:#bef3d3;fill-opacity:1;stroke-width:0.26458332"
         id="path856" />
    </g>
  </g>
</svg>
